<mxfile host="app.diagrams.net" modified="2024-02-13T05:56:30.663Z" agent="Mozilla/5.0 (Windows NT 10.0; Win64; x64) AppleWebKit/537.36 (KHTML, like Gecko) Chrome/121.0.0.0 Safari/537.36" version="23.1.3" etag="qFKv8Rd_Dds8_An0ldyZ" type="github">
  <diagram name="PÃ¡gina-1" id="P2HmIa9P_3Hn5dR5yr6i">
    <mxGraphModel>
      <root>
        <mxCell id="0" />
        <mxCell id="1" parent="0" />
      </root>
    </mxGraphModel>
  </diagram>
</mxfile>
